<?xml version="1.0" encoding="UTF-8" standalone="no"?>
<svg xmlns="http://www.w3.org/2000/svg" version="1.2" baseProfile="tiny" viewBox="0.00 0.00 1004.00 298.00">
<path fill="#000000" d="
  M 6.53 0.00
  L 65.53 0.00
  L 110.59 69.33
  A 1.73 1.73 0.0 0 0 113.48 69.34
  L 159.09 0.00
  L 218.28 0.00
  Q 219.00 1.34 218.11 2.68
  Q 178.89 61.57 139.67 120.47
  Q 138.11 122.81 138.12 128.26
  Q 138.20 172.75 138.09 217.25
  Q 138.08 220.07 137.94 223.03
  A 2.18 2.17 1.0 0 1 135.80 225.09
  Q 114.06 225.43 90.68 224.65
  C 88.91 224.60 86.95 223.59 86.96 221.62
  Q 87.13 173.76 87.10 127.01
  C 87.10 123.04 84.86 120.29 82.69 117.03
  Q 44.61 59.75 6.50 2.49
  Q 5.42 0.86 6.53 0.00
  Z"
/>
<path fill="#000000" d="
  M 406.91 99.09
  A 1.61 1.60 -60.8 0 0 408.34 98.68
  C 410.53 96.60 412.41 94.15 414.81 92.39
  Q 429.00 81.98 445.15 81.41
  Q 456.46 81.01 469.20 85.33
  Q 484.55 90.53 493.12 103.97
  C 494.67 106.39 497.26 105.60 498.52 103.50
  Q 499.27 102.26 500.36 101.15
  C 507.88 93.47 516.97 86.48 526.80 83.73
  C 533.98 81.72 539.92 80.77 547.78 81.74
  C 557.12 82.89 564.91 84.74 572.70 89.21
  C 586.70 97.24 594.77 110.41 594.97 126.49
  Q 595.01 129.53 595.04 132.51
  Q 595.37 175.31 595.30 223.94
  A 1.08 1.08 0.0 0 1 594.25 225.02
  Q 572.47 225.50 551.67 224.74
  C 549.96 224.68 548.19 223.61 548.20 221.71
  Q 548.32 185.49 548.29 149.26
  C 548.29 143.88 547.85 137.88 545.57 133.07
  Q 539.62 120.50 525.92 119.60
  Q 506.22 118.30 501.41 136.81
  Q 500.34 140.92 500.38 145.80
  Q 500.67 180.87 500.39 217.61
  Q 500.37 220.44 500.24 223.17
  A 1.89 1.89 0.0 0 1 498.41 224.97
  Q 476.12 225.48 456.44 224.79
  C 454.85 224.74 452.83 223.80 452.84 221.89
  Q 453.08 185.02 452.91 145.26
  C 452.87 135.83 448.27 125.03 438.99 121.56
  C 425.11 116.37 409.86 120.41 406.38 136.63
  C 405.33 141.50 405.24 148.42 405.26 154.13
  Q 405.38 188.94 405.48 222.38
  Q 405.49 225.09 402.78 225.12
  Q 384.16 225.31 363.75 225.00
  Q 361.15 224.96 358.84 224.26
  A 1.95 1.95 0.0 0 1 357.45 222.38
  L 357.83 85.98
  A 0.68 0.67 87.7 0 1 358.45 85.30
  Q 360.15 85.16 361.76 85.15
  Q 381.26 85.02 402.77 85.29
  Q 405.69 85.33 405.56 88.24
  Q 405.37 92.77 405.62 97.65
  Q 405.68 98.85 406.91 99.09
  Z"
/>
<path fill="#000000" d="
  M 649.28 99.01
  Q 650.95 98.64 652.17 97.57
  C 655.36 94.78 658.41 91.81 662.05 89.55
  Q 675.48 81.21 690.67 81.31
  Q 696.08 81.35 705.76 83.47
  Q 721.77 86.99 731.92 98.26
  C 733.31 99.81 734.36 101.57 735.45 103.34
  C 736.98 105.83 739.71 106.24 741.44 103.47
  Q 741.86 102.81 742.37 102.26
  Q 753.25 90.46 765.52 85.27
  Q 780.45 78.96 798.64 82.93
  C 813.66 86.22 825.70 92.92 832.50 107.40
  Q 836.23 115.34 837.64 120.92
  Q 838.88 125.82 838.85 133.84
  Q 838.69 175.95 838.67 220.32
  Q 838.67 221.95 838.49 223.47
  A 1.71 1.70 2.5 0 1 836.84 224.97
  Q 814.62 225.48 793.82 224.66
  C 792.30 224.59 791.05 223.55 791.05 221.95
  Q 791.14 184.66 791.21 147.90
  C 791.24 137.03 787.44 125.75 776.91 121.49
  C 766.78 117.39 753.74 119.16 747.62 128.82
  Q 743.29 135.67 743.35 144.20
  Q 743.59 179.76 743.47 216.67
  Q 743.46 220.05 743.18 223.46
  A 1.61 1.61 0.0 0 1 741.62 224.94
  Q 719.81 225.51 699.75 224.74
  Q 697.59 224.66 696.27 223.17
  A 1.17 1.15 -66.4 0 1 695.97 222.39
  Q 695.97 185.02 696.08 148.27
  C 696.12 135.50 691.39 123.51 678.21 120.30
  C 667.79 117.77 656.59 120.49 651.44 130.52
  C 647.84 137.53 648.21 142.85 648.22 152.60
  Q 648.26 186.43 648.20 222.66
  A 2.47 2.47 0.0 0 1 645.73 225.13
  L 602.53 225.11
  A 1.63 1.63 0.0 0 1 600.90 223.47
  C 601.18 178.85 601.38 134.11 600.63 88.50
  Q 600.58 85.19 603.98 85.14
  Q 622.20 84.88 641.47 85.32
  C 644.05 85.38 648.92 84.43 648.47 88.87
  Q 648.02 93.26 647.72 97.67
  A 1.29 1.28 -4.2 0 0 649.28 99.01
  Z"
/>
<path fill="#000000" d="
  M 253.17 226.87
  Q 241.99 225.33 232.99 221.63
  Q 211.32 212.70 204.58 190.15
  C 200.97 178.07 201.00 165.77 201.01 151.62
  Q 201.02 119.97 201.06 87.40
  C 201.07 84.57 204.95 84.82 206.79 84.81
  Q 219.10 84.78 242.58 84.81
  Q 245.30 84.81 247.51 85.56
  A 1.00 1.00 0.0 0 1 248.15 86.24
  Q 248.47 87.45 248.47 88.50
  Q 248.58 117.39 248.45 148.75
  Q 248.41 159.97 251.16 172.50
  C 255.04 190.15 274.98 192.82 289.28 187.54
  C 296.75 184.78 300.28 178.50 302.13 171.15
  Q 304.13 163.20 304.31 155.81
  Q 305.08 123.61 304.44 88.07
  Q 304.38 84.96 307.40 84.92
  Q 325.37 84.67 346.01 84.83
  Q 348.58 84.85 350.92 85.48
  Q 351.41 85.61 351.43 86.11
  Q 351.61 89.51 351.60 92.51
  Q 351.50 124.01 351.65 156.80
  C 351.72 173.39 351.51 190.21 341.73 204.39
  C 333.13 216.84 318.33 224.03 303.61 226.30
  C 295.10 227.62 285.77 228.91 277.24 228.88
  Q 267.48 228.84 253.17 226.87
  Z"
/>
<path fill="#000000" d="
  M 915.90 156.42
  A 1.44 1.42 17.3 0 0 917.46 155.61
  Q 932.40 123.35 947.98 89.83
  Q 949.51 86.54 953.12 86.58
  Q 976.90 86.81 998.99 86.76
  Q 1000.76 86.76 1002.46 87.21
  A 0.81 0.79 -81.4 0 1 1003.06 88.04
  Q 1002.96 89.56 1002.27 90.91
  Q 950.50 190.27 896.14 294.27
  A 4.97 4.96 -76.2 0 1 891.76 296.93
  Q 863.86 297.02 844.56 296.63
  Q 843.29 296.61 842.12 295.94
  A 1.90 1.90 0.0 0 1 841.41 293.34
  Q 843.34 289.97 844.82 287.13
  Q 864.31 249.89 882.10 215.67
  C 884.43 211.19 888.97 205.78 886.06 200.56
  Q 868.66 169.36 852.52 140.80
  Q 847.60 132.12 842.89 123.31
  Q 833.52 105.79 823.23 88.45
  A 1.21 1.21 0.0 0 1 824.28 86.63
  Q 848.15 86.90 873.75 86.54
  Q 877.10 86.50 878.70 89.49
  Q 895.64 121.12 914.62 155.49
  Q 915.04 156.26 915.90 156.42
  Z"
/>
</svg>
